Coordinates
version=1
nRows=13
nColumns=38
inDegrees=no

Units are S.I. units (second, meters, Newtons, ...)
If the header above contains a line with 'inDegrees', this indicates whether rotational values are in degrees (yes) or radians (no).

endheader
time	pelvis_tilt	pelvis_list	pelvis_rotation	pelvis_tx	pelvis_ty	pelvis_tz	hip_flexion_r	hip_adduction_r	hip_rotation_r	knee_angle_r	ankle_angle_r	subtalar_angle_r	mtp_angle_r	hip_flexion_l	hip_adduction_l	hip_rotation_l	knee_angle_l	ankle_angle_l	subtalar_angle_l	mtp_angle_l	lumbar_extension	lumbar_bending	lumbar_rotation	arm_flex_r	arm_add_r	arm_rot_r	elbow_flex_r	pro_sup_r	wrist_flex_r	wrist_dev_r	arm_flex_l	arm_add_l	arm_rot_l	elbow_flex_l	pro_sup_l	wrist_flex_l	wrist_dev_l
35	-1.63171	1.549	-2.93372	0.69017	0.575419	0.970561	0.0704303	-0.0573061	-0.262482	0.41894	0.216578	0	0	0.13355	-0.0534322	-0.146918	0.476702	0.220948	0	0	-0.0903128	0.0496807	-0.043076	0.0127646	-0.191799	-0.0403272	0.173439	1.29805	0	0	-0.191226	-0.263041	0.372469	0.826843	0.978802	0	0
35.01	-1.54875	1.54625	-3.01663	0.688998	0.573607	0.969362	0.0855186	-0.0640839	-0.256904	0.441577	0.22268	0	0	0.146088	-0.0485285	-0.141891	0.493929	0.223858	0	0	-0.0952051	0.0518399	-0.0412697	0.017547	-0.195367	-0.0300304	0.174491	1.28633	0	0	-0.188789	-0.262948	0.374226	0.832663	0.981827	0	0
35.02	-1.48052	1.54277	-3.0853	0.687882	0.571786	0.968015	0.101293	-0.0714827	-0.250956	0.465453	0.228961	0	0	0.15818	-0.042921	-0.137335	0.510404	0.227085	0	0	-0.100188	0.0531743	-0.0389726	0.0217026	-0.198812	-0.0205946	0.177084	1.27386	0	0	-0.186581	-0.263283	0.376037	0.838538	0.984088	0	0
35.03	-1.40782	1.53871	3.12363	0.686813	0.569886	0.966468	0.119646	-0.079443	-0.242506	0.491764	0.234842	0	0	0.170601	-0.0366847	-0.133444	0.526304	0.230664	0	0	-0.104746	0.0539062	-0.0357005	0.025301	-0.202571	-0.00999259	0.181548	1.2583	0	0	-0.184692	-0.263565	0.377023	0.844568	0.986617	0	0
35.04	-1.35912	1.53436	3.07253	0.685759	0.567902	0.964751	0.138182	-0.0873753	-0.232527	0.518489	0.241157	0	0	0.182477	-0.0302345	-0.13025	0.541805	0.234994	0	0	-0.108676	0.0545363	-0.0363325	0.0101865	-0.226968	0.218759	0.232075	0.977034	0	0	-0.187051	-0.262462	0.370101	0.85218	0.992458	0	0
35.05	-1.28666	1.5295	2.99721	0.684785	0.565945	0.962789	0.158734	-0.0952471	-0.2213	0.545601	0.24814	0	0	0.195663	-0.0235773	-0.127369	0.556918	0.239818	0	0	-0.112836	0.054504	-0.0302159	0.0224147	-0.220821	0.126294	0.214561	1.09177	0	0	-0.184501	-0.262965	0.371109	0.858057	0.999418	0	0
35.06	-1.22824	1.52457	2.93526	0.683863	0.563935	0.960596	0.179996	-0.102763	-0.209492	0.573379	0.255639	0	0	0.20896	-0.017294	-0.125122	0.572385	0.245817	0	0	-0.11643	0.0544959	-0.0259761	0.0275196	-0.224806	0.131004	0.216819	1.08631	0	0	-0.184025	-0.263199	0.369477	0.86476	1.00421	0	0
35.07	-1.17644	1.51939	2.87924	0.683002	0.561867	0.958168	0.202358	-0.110177	-0.197356	0.602138	0.262745	0	0	0.22265	-0.0111426	-0.12359	0.588059	0.252634	0	0	-0.120006	0.054195	-0.0217207	0.0330357	-0.228825	0.13521	0.219478	1.08095	0	0	-0.184098	-0.263408	0.366936	0.872077	1.00877	0	0
35.08	-1.13308	1.51372	2.83116	0.682195	0.559772	0.955503	0.226045	-0.117791	-0.184685	0.632649	0.269608	0	0	0.236841	-0.00489633	-0.122784	0.604279	0.260012	0	0	-0.123666	0.0532708	-0.0176703	0.0389455	-0.232793	0.139546	0.222455	1.07553	0	0	-0.184891	-0.263766	0.363298	0.880258	1.01249	0	0
35.09	-1.09803	1.50771	2.79087	0.681422	0.557635	0.952638	0.250522	-0.125355	-0.171077	0.663869	0.276393	0	0	0.251474	0.00136622	-0.122718	0.621156	0.267883	0	0	-0.127557	0.051921	-0.0137529	0.0453868	-0.236814	0.14435	0.225477	1.07015	0	0	-0.186164	-0.26421	0.358942	0.888472	1.01576	0	0
35.1	-1.06361	1.50137	2.75063	0.6807	0.555393	0.949533	0.275564	-0.132534	-0.157292	0.694363	0.283063	0	0	0.267585	0.00743395	-0.123301	0.639537	0.275915	0	0	-0.131356	0.0503188	-0.00985751	0.0515792	-0.241826	0.157283	0.230619	1.0552	0	0	-0.187452	-0.265195	0.356063	0.896085	1.01385	0	0
35.11	-1.0323	1.49524	2.71392	0.679972	0.553101	0.946242	0.299865	-0.139189	-0.145204	0.723456	0.290213	0	0	0.285139	0.0130033	-0.123428	0.659991	0.283801	0	0	-0.13551	0.0489539	-0.00634421	0.0590894	-0.245475	0.156084	0.233276	1.05932	0	0	-0.188325	-0.266047	0.352925	0.902434	1.01689	0	0
35.12	-0.99914	1.48938	2.67564	0.679229	0.550781	0.942765	0.323548	-0.14519	-0.134675	0.750988	0.298181	0	0	0.304816	0.0179124	-0.122948	0.683193	0.291326	0	0	-0.139432	0.0481474	-0.00308578	0.0664197	-0.249533	0.155878	0.236473	1.06255	0	0	-0.188741	-0.266878	0.350729	0.907673	1.02003	0	0
